<svg width="76" height="76" viewBox="0 0 76 76" fill="none" xmlns="http://www.w3.org/2000/svg">
<path d="M35.4559 11.1092C37.0074 10.2091 38.9223 10.2091 40.4738 11.1092L60.1555 22.5269C61.6975 23.4214 62.6466 25.0692 62.6466 26.8518V49.7287C62.6466 51.5113 61.6975 53.1591 60.1555 54.0536L40.4738 65.4714C38.9223 66.3714 37.0074 66.3714 35.4559 65.4714L15.7742 54.0537C14.2322 53.1591 13.2831 51.5113 13.2831 49.7287V26.8519C13.2831 25.0692 14.2322 23.4214 15.7742 22.5269L35.4559 11.1092Z" fill="#222831"/>
<path d="M35.7068 2.49858C37.1032 1.68851 38.8265 1.68851 40.2229 2.49858L67.6989 18.4378C69.0866 19.2429 69.9408 20.7259 69.9408 22.3303V54.2503C69.9408 55.8546 69.0866 57.3377 67.6989 58.1427L40.2229 74.082C38.8265 74.8921 37.1032 74.8921 35.7068 74.082L8.23082 58.1427C6.84306 57.3377 5.98889 55.8546 5.98889 54.2503V22.3303C5.98889 20.7259 6.84307 19.2429 8.23082 18.4378L35.7068 2.49858Z" stroke="#ABB6B8"/>
</svg>
